<svg id="Ebene_1" data-name="Ebene 1" xmlns="http://www.w3.org/2000/svg" viewBox="0 0 997 997"><defs><style>.cls-1{fill:#997c67;}.cls-2{fill:#dba72e;}.cls-3{fill:#cf5230;}</style></defs><title>autumn-juggling-icon</title><circle class="cls-1" cx="498.5" cy="498.5" r="498.5"/><path class="cls-2" d="M940.28,305.61c7.4-14.79,28.53-59.35,21.64-72.44-8.31-15.79-17.45-23.27-46.53-23.27s-71.45,15-71.45,15,2.49,6.64-2.49,8.31c0,0-18.28-5-42.38,5s-38.22,13.29-69.79,41.54l8.31,7.48s-69,51.51-68.13,55.67,5,2.49,5,2.49a65.34,65.34,0,0,0-25.76,33.23c-7.48,22.43-19.11,29.08-19.11,29.08s-17.44,19.94-17.44,28.25,5.81,7.48,5.81,7.48-53.17,133.76,6.65,265.86l10.8-13.29s-19.94,85.58,126.29,173.64c0,0-50.69-144.56-11.64-176.13,0,0,3.33-3.33,4.16.83s4.15,12.46,31.57-76.44c0,0,5.82-3.32,12.46,1.66l22.43-29.91s-1.66-30.74,9.14-33.23l19.94,31.57s5-53.17,9.14-49c0,0,5.82-2.49,7.48,4.16,0,0,10-17.45,20.77-15L893,545.53c-.16-.51-1.79-8.33,43.21-9.94,46.53-1.66,72.28-33.23,72.28-33.23L1025.89,514s10,.83,22.43-9.14.83-39.05,39.88-40.71,11.63-73.95,11.63-73.95-1.66-37.38-7.47-50.68-29.08-37.38-29.08-37.38-7.48-5-56.5-10.81l-49.85,15-2.3.5.64-.5" transform="translate(-461 -72)"/><path class="cls-1" d="M1154.14,257.26S471.2,348.65,762,869.58c0,0-373-497.66,385.51-653.86Z" transform="translate(-461 -72)"/><circle class="cls-3" cx="647.86" cy="168.23" r="55.25"/><path class="cls-3" d="M987.49,848.65c-7.4,14.8-28.53,59.35-21.64,72.45,8.31,15.78,17.45,23.26,46.53,23.26s71.45-15,71.45-15-2.49-6.64,2.49-8.3c0,0,18.28,5,42.37-5s38.22-13.29,69.79-41.54l-8.3-7.48s69-51.51,68.12-55.66-5-2.5-5-2.5a65.29,65.29,0,0,0,25.75-33.23c7.48-22.43,19.11-29.08,19.11-29.08s17.45-19.94,17.45-28.25-5.81-7.47-5.81-7.47S1363,577.13,1303.17,445l-10.8,13.29s19.94-85.57-126.29-173.64c0,0,50.68,144.56,11.63,176.14,0,0-3.32,3.32-4.15-.84s-4.16-12.46-31.57,76.44c0,0-5.82,3.32-12.47-1.66l-22.43,29.91s1.66,30.74-9.14,33.23L1078,566.33s-5,53.17-9.14,49c0,0-5.81,2.49-7.47-4.15,0,0-10,17.44-20.77,14.95l-5.81-17.42c.15.51,1.78,8.34-43.21,9.94-46.53,1.66-72.29,33.24-72.29,33.24l-17.44-11.64s-10-.83-22.44,9.14-.83,39.05-39.88,40.71-11.63,74-11.63,74,1.66,37.39,7.48,50.68,29.08,37.39,29.08,37.39,7.48,5,56.5,10.8l49.85-15,2.29-.5-.63.5" transform="translate(-461 -72)"/><path class="cls-1" d="M773.62,897s682.95-91.39,392.16-612.32c0,0,373,497.67-385.51,653.86Z" transform="translate(-461 -72)"/><circle class="cls-2" cx="357.07" cy="842.03" r="55.25"/></svg>